<?xml version="1.0" encoding="UTF-8"?>
<svg width="77.682mm" height="96.308mm" version="1.1" viewBox="0 0 77.681628 96.308331" xmlns="http://www.w3.org/2000/svg" xmlns:cc="http://creativecommons.org/ns#" xmlns:dc="http://purl.org/dc/elements/1.1/" xmlns:rdf="http://www.w3.org/1999/02/22-rdf-syntax-ns#"><metadata><rdf:RDF><cc:Work rdf:about=""><dc:format>image/svg+xml</dc:format><dc:type rdf:resource="http://purl.org/dc/dcmitype/StillImage"/><dc:title/></cc:Work></rdf:RDF></metadata><g transform="translate(-1283.2 -554.46)"><g transform="matrix(.26458 0 0 .26458 1283.1 554.46)" fill="none" fill-rule="evenodd"><g id="Vector"><g id="Crossbars" transform="translate(46)"><path id="Bottom-Right" d="m28 85v-15l41-18 20 8-59 25z" fill="#a7a9ac"/><path id="Bottom-Left" transform="matrix(-1,0,0,1,289,0)" d="m114 85v-15l41-18 20 8-59 25z" fill="#bcbdc0"/><path d="m12 20 89 35v10.05l-62 23.95-11-4 60-25-88-33zm178 0-89 35v10.05l62 23.95 11-4-60-25 88-33z" fill="#818285"/><g id="Top-Left" fill="#bcbdc0"><path d="m0 27 2-20 11-7-1 20z"/><path d="m13 0 88 38v17.031l-89-35.031z"/></g><g id="Top-Right" transform="matrix(-1,0,0,1,202,0)"><path d="m0 27 2-20 11-7-1 20z" fill="#bcbdc0"/><path d="m13 0 88 38v17.031l-89-35.031z" fill="#a7a9ac"/></g></g><g id="Strings" transform="translate(47,27)" stroke="#939598" stroke-linecap="round" stroke-width="4"><path d="m11 0-11 109"/><path transform="matrix(-1,0,0,1,389,0)" d="m200 0-11 109"/><path d="m39 58 31 74z" stroke-linejoin="round"/><path transform="matrix(-1,0,0,1,289,0)" d="m129 58 31 74z" stroke-linejoin="round"/></g><g id="M" transform="translate(0,123)"><path d="m92 0l55 66v98s-41-26-65-60c-8-12-9-100 10-104z" fill="#a81e2c"/><path transform="matrix(-1 0 0 1 363.8 0)" d="m161.3 0s56 66 56 66v98s-41-26-65-60c-8-12-10-100 9-104z" fill="#931a2b"/><circle cx="146.5" cy="114.5" r="4.5" fill="#fff"/><path d="m147 115-64-59" stroke="#989a9d" stroke-linecap="round" stroke-width="4"/><path transform="matrix(-1,0,0,1,358,0)" d="m211 115-64-59" stroke="#989a9d" stroke-linecap="round" stroke-width="4"/><path id="left-m-front" d="m9 14s-20 125 1 218c0 1 83 9 83 9s-21-139-1-241z" fill="#cf2227"/><path id="right-m-front" transform="matrix(-1 0 0 1 495.4 0)" d="m210 14s-20 125 1 218c0 1 83 9 83 9s-21-139-1-241z" fill="#cf2227"/><g id="String-Left" transform="translate(39,33)"><circle cx="6" cy="4" r="4" fill="#860709"/><circle cx="6" cy="170" r="4" fill="#fff"/><path d="m6 5c0 1-12 82 0 165" stroke="#939598" stroke-linecap="round" stroke-width="4"/></g><g id="String-Right" transform="matrix(-1,0,0,1,254.5,33)"><circle cx="6" cy="4" r="4" fill="#860709"/><circle cx="6" cy="170" r="4" fill="#fff"/><path d="m6 5c0 1-12 82 0 165" stroke="#939598" stroke-linecap="round" stroke-width="4"/></g></g></g></g></g></svg>
