<?xml version="1.0" encoding="UTF-8"?>
<svg width="88.869mm" height="94.141mm" version="1.1" viewBox="0 0 88.868584 94.141068" xmlns="http://www.w3.org/2000/svg" xmlns:cc="http://creativecommons.org/ns#" xmlns:dc="http://purl.org/dc/elements/1.1/" xmlns:rdf="http://www.w3.org/1999/02/22-rdf-syntax-ns#"><metadata><rdf:RDF><cc:Work rdf:about=""><dc:format>image/svg+xml</dc:format><dc:type rdf:resource="http://purl.org/dc/dcmitype/StillImage"/><dc:title/></cc:Work></rdf:RDF></metadata><g transform="translate(-47.036 -63.209)"><g transform="matrix(.33073 0 0 -.33073 -2.9296 231.67)"><g transform="scale(.1)"><path d="m2850 5093.8-1339.2-471.3 211.62-1754.6 1129-620.54 1134.8 628.95 211.55 1754.6z" fill="#b3b3b3"/><path d="m4064.2 4529.4-1217.4 415.13v-2549l1020.2 564.62z" fill="#af2b2d"/><path d="m1661 4521.9 181.34-1569.2 1004.5-557.13v2549z" fill="#df2e31"/><path d="m3129 3676.7-279.96 584.64-246.46-584.64zm106.74-245.83h-742.11l-166.02-415.26-308.82-5.71 828.04 1842.1 856.9-1842.1h-286.23z" fill="#f2f2f2"/><path d="m2846.9 4852 2.21-590.62 279.67-585.09h-281.25l-0.63-245 388.9-0.38 181.77-421.04 295.49-5.48z" fill="#b3b3b3"/></g></g></g></svg>
