<?xml version="1.0" encoding="UTF-8"?>
<svg width="532.43mm" height="661.32mm" version="1.1" viewBox="0 0 532.42823 661.31897" xmlns="http://www.w3.org/2000/svg" xmlns:cc="http://creativecommons.org/ns#" xmlns:dc="http://purl.org/dc/elements/1.1/" xmlns:rdf="http://www.w3.org/1999/02/22-rdf-syntax-ns#"><metadata><rdf:RDF><cc:Work rdf:about=""><dc:format>image/svg+xml</dc:format><dc:type rdf:resource="http://purl.org/dc/dcmitype/StillImage"/><dc:title/></cc:Work></rdf:RDF></metadata><g transform="translate(195.25 80.492)"><g transform="matrix(2.0801 0 0 2.0801 -195.25 -80.492)"><path d="m0 0v171.94l127.98 72.955v-49.592l-85.62-48.807v-76.66l85.62 48.806v-45.691z" fill="#002a41"/><path d="m255.97 0v171.94l-127.98 72.955v-49.592l85.619-48.807v-76.66l-85.62 48.806v-45.691l127.98-72.956z" fill="#0071b5"/><path d="m0 317.93v-171.94l127.98-72.956v49.592l-85.62 48.806v72.761l85.62-48.806v49.592z" fill="#0071b5"/><path d="m255.97 317.93v-171.94l-127.98-72.956v49.592l85.619 48.806v72.761l-85.62-48.806v49.592z" fill="#002a41"/></g></g></svg>
