<?xml version="1.0" encoding="UTF-8"?>
<svg width="161.92mm" height="161.92mm" version="1.1" viewBox="0 0 161.925 161.925" xmlns="http://www.w3.org/2000/svg" xmlns:cc="http://creativecommons.org/ns#" xmlns:dc="http://purl.org/dc/elements/1.1/" xmlns:rdf="http://www.w3.org/1999/02/22-rdf-syntax-ns#"><metadata><rdf:RDF><cc:Work rdf:about=""><dc:format>image/svg+xml</dc:format><dc:type rdf:resource="http://purl.org/dc/dcmitype/StillImage"/><dc:title/></cc:Work></rdf:RDF></metadata><g transform="translate(-364.92 -236.78)"><g transform="matrix(.26458 0 0 .26458 364.92 236.78)"><path d="m612 510c0 56.1-45.9 102-102 102h-408c-56.1 0-102-45.9-102-102v-408c0-56.1 45.9-102 102-102h408c56.1 0 102 45.9 102 102z" fill="#563d7c"/><path d="m166.3 133h173.5c32 0 57.7 7.3 77 22s29 36.8 29 66.5c0 18-4.4 33.4-13.2 46.2s-21.4 22.8-37.8 29.8v1c22 4.7 38.7 15.1 50 31.2 11.3 16.2 17 36.4 17 60.8 0 14-2.5 27.1-7.5 39.2-5 12.2-12.8 22.7-23.5 31.5s-24.3 15.8-41 21-36.5 7.8-59.5 7.8h-164zm62.5 149.5h102c15 0 27.5-4.2 37.5-12.8s15-20.8 15-36.8c0-18-4.5-30.7-13.5-38s-22-11-39-11h-102zm0 156.5h110.5c19 0 33.8-4.9 44.2-14.8 10.5-9.8 15.8-23.8 15.8-41.8 0-17.7-5.2-31.2-15.8-40.8s-25.2-14.2-44.2-14.2h-110.5z" fill="#fff"/></g></g></svg>
