<?xml version="1.0" standalone="no"?>
<!DOCTYPE svg PUBLIC "-//W3C//DTD SVG 20010904//EN"
  "http://www.w3.org/TR/2001/REC-SVG-20010904/DTD/svg10.dtd">
<svg version="1.0" xmlns="http://www.w3.org/2000/svg"
     width="1250.000000pt" height="810.000000pt" viewBox="0 0 1250.000000 810.000000"
     preserveAspectRatio="xMidYMid meet">
  <g transform="translate(0.000000,810.000000) scale(0.100000,-0.100000)" stroke="none">
    <path fill="#cc2131" d="M8190 8054 c-746 -41 -1372 -203 -2000 -519 -518 -260 -913 -545
-1315 -949 -206 -207 -353 -378 -496 -577 l-81 -114 587 -3 587 -2 101 97
c349 331 679 564 1082 763 408 201 769 310 1245 375 178 25 645 31 850 11 672
-64 1264 -275 1822 -648 209 -139 416 -307 628 -508 l95 -90 589 0 588 0 -17
28 c-70 109 -237 320 -386 487 -555 624 -1326 1128 -2144 1404 -348 117 -752
200 -1120 230 -134 12 -514 21 -615 15z"/>
    <path fill="#36377c" d="M8275 6370 l-500 -269 -3 -505 -2 -506 -425 0 -425 0 0 -470 0 -470
425 0 425 0 0 -1392 c0 -823 4 -1449 10 -1531 26 -365 139 -634 359 -857 218
-221 455 -310 821 -310 226 0 426 34 600 101 70 27 231 107 248 123 12 12 263
966 257 974 -2 2 -41 -19 -87 -47 -256 -154 -501 -234 -718 -234 -213 0 -347
76 -420 236 -56 126 -54 53 -57 1550 l-4 1387 521 0 520 0 0 470 0 470 -520 0
-520 0 -2 774 -3 774 -500 -268z"/>
    <path fill="#36377c" d="M2375 5169 c-636 -48 -1169 -282 -1618 -708 -384 -366 -624 -862
-697 -1441 -70 -556 -1 -1103 195 -1550 213 -485 620 -908 1111 -1153 374
-187 750 -269 1234 -271 329 -1 521 27 778 115 363 125 673 340 975 678 51 56
56 66 44 80 -8 9 -135 162 -282 341 -148 179 -272 329 -276 334 -5 5 -40 -21
-81 -60 -266 -252 -545 -412 -836 -480 -191 -45 -475 -44 -682 2 -265 60 -498
186 -698 378 -267 258 -407 538 -462 926 -16 112 -14 397 5 527 51 358 199
650 453 895 257 246 559 377 945 408 447 37 870 -131 1265 -502 39 -37 76 -68
81 -68 6 0 139 155 296 345 l286 346 -43 47 c-96 106 -298 302 -364 354 -452
357 -981 506 -1629 457z"/>
    <path fill="#36377c" d="M4980 2615 l0 -2485 510 0 510 0 0 2485 0 2485 -510 0 -510 0 0
-2485z"/>
    <path fill="#36377c" d="M10800 2615 l0 -2485 515 0 515 0 0 2485 0 2485 -515 0 -515 0 0
-2485z"/>
  </g>
</svg>
