<?xml version="1.0" encoding="UTF-8"?>
<svg width="27.861mm" height="31.591mm" version="1.1" viewBox="0 0 27.860624 31.591249" xmlns="http://www.w3.org/2000/svg" xmlns:cc="http://creativecommons.org/ns#" xmlns:dc="http://purl.org/dc/elements/1.1/" xmlns:rdf="http://www.w3.org/1999/02/22-rdf-syntax-ns#"><metadata><rdf:RDF><cc:Work rdf:about=""><dc:format>image/svg+xml</dc:format><dc:type rdf:resource="http://purl.org/dc/dcmitype/StillImage"/><dc:title/></cc:Work></rdf:RDF></metadata><g transform="translate(-787.17 -321.68)"><g transform="matrix(.26458 0 0 .26458 787.17 321.68)"><polygon points="0 0 105.3 0 95.9 107.6 52.6 119.4 9.4 107.6" fill="#0a71b9"/><polygon points="96.5 8.9 88.1 100.6 52.6 110.8 52.6 8.9" fill="#28a7de"/><polygon points="22.2 48.5 23.4 61.4 68.9 61.4 67.2 79.2 52.4 82.8 37.9 79.2 37.1 68.6 24.1 68.6 26.1 89.9 53 97.2 79.8 89.9 86.1 22.2 79.8 22.2 19.7 22.2 21 35.3 71.2 35.3 69.6 48.5" fill="#ebebeb"/><polygon points="71.2 35.3 52.9 35.3 52.9 48.5 69.6 48.5" fill="none"/><polygon points="68.9 61.4 52.9 61.4 52.9 82.6 67.2 79.2" fill="none"/><polygon points="52.6 48.5 52.6 61.4 68.8 61.4 67.1 79.2 52.6 82.6 52.6 97.2 52.8 97.2 79.7 89.9 86.1 22.2 79.7 22.2 52.6 22.2 52.6 35.3 71.1 35.3 69.5 48.5" fill="#fff"/></g></g></svg>
