<?xml version="1.0" encoding="UTF-8"?>
<svg width="28.567mm" height="27.185mm" version="1.1" viewBox="0 0 28.566801 27.185356" xmlns="http://www.w3.org/2000/svg" xmlns:cc="http://creativecommons.org/ns#" xmlns:dc="http://purl.org/dc/elements/1.1/" xmlns:rdf="http://www.w3.org/1999/02/22-rdf-syntax-ns#"><defs><linearGradient id="linearGradient-1" x1="72.23" x2="135.18" y1="38.131" y2="107.05" gradientTransform="scale(1.0041 .9959)" gradientUnits="userSpaceOnUse"><stop stop-color="#F9A03C" offset="0"/><stop stop-color="#F7974E" offset="1"/></linearGradient><linearGradient id="linearGradient-2" x1="18.043" x2="78.821" y1="50.756" y2="109.44" gradientTransform="scale(.99515 1.0049)" gradientUnits="userSpaceOnUse"><stop stop-color="#F9A03C" offset="0"/><stop stop-color="#F7974E" offset="1"/></linearGradient><linearGradient id="linearGradient-3" x1="47.862" x2="99.273" y1="72.126" y2="134.38" gradientTransform="scale(1.0114 .98875)" gradientUnits="userSpaceOnUse"><stop stop-color="#F9A03C" offset="0"/><stop stop-color="#F7974E" offset="1"/></linearGradient><linearGradient id="linearGradient-4" x1="42.529" x2="109.53" y1="28.855" y2="127.69" gradientTransform="scale(1.0257 .97491)" gradientUnits="userSpaceOnUse"><stop stop-color="#F26D58" offset="0"/><stop stop-color="#F9A03C" offset="1"/></linearGradient><linearGradient id="linearGradient-5" x1="81.433" x2="155.35" y1="36.491" y2="77.551" gradientTransform="scale(.95662 1.0453)" gradientUnits="userSpaceOnUse"><stop stop-color="#B84E51" offset="0"/><stop stop-color="#F68E48" offset="1"/></linearGradient><linearGradient id="linearGradient-6" x1="46.198" x2="46.926" y1="141.54" y2="208.59" gradientTransform="scale(1.3782 .7256)" gradientUnits="userSpaceOnUse"><stop stop-color="#F9A03C" offset="0"/><stop stop-color="#F7974E" offset="1"/></linearGradient></defs><metadata><rdf:RDF><cc:Work rdf:about=""><dc:format>image/svg+xml</dc:format><dc:type rdf:resource="http://purl.org/dc/dcmitype/StillImage"/><dc:title/></cc:Work></rdf:RDF></metadata><g transform="translate(-61.854 -74.353)"><g transform="matrix(.26458 0 0 .26458 54.712 66.416)" fill-rule="evenodd"><path id="Shape" d="m134.8 104.44c0.0484-0.47247 0.0832-0.94947 0.11025-1.4287 0.0326-0.56742-33.987-32.998-33.987-32.998h-0.81338s34.482 36.544 34.69 34.427z" fill="url(#linearGradient-1)"/><path d="m62.215 93.189c-0.045 0.09947-0.09 0.19894-0.13612 0.2984-0.04838 0.10399-0.09788 0.20798-0.14738 0.31084-1.0845 2.2719 15.182 18.249 16.49 16.308 0.05963-0.0859 0.11925-0.17633 0.17888-0.26223 0.06637-0.10173 0.13162-0.19894 0.19688-0.30067 1.0462-1.596-16.118-17.392-16.582-16.355z" fill="url(#linearGradient-2)"/><path d="m85.201 115.66c-0.04613 0.10173-0.3735 0.65784-0.67275 0.95173-0.05063 0.10172 15.879 15.975 15.879 15.975h1.4344c1e-3 0-14.954-16.255-16.641-16.926z" fill="url(#linearGradient-3)"/><path d="m134.93 102.72c-0.74475 16.593-14.408 29.861-31.101 29.861h-2.2568l-16.67-16.5c1.3714-1.943 2.646-3.9561 3.7811-6.0551h15.146c4.7902 0 8.6884-3.9143 8.6884-8.7294 0-4.8129-3.8981-8.7294-8.6884-8.7294h-8.9629c0.68288-3.6272 1.0564-7.3674 1.0564-11.194 0-3.8849-0.38025-7.6782-1.0879-11.363h5.5676l34.43 34.085c0.0405-0.45664 0.0731-0.91329 0.0979-1.3745zm-98.874-72.722h-9.0562v22.555h9.0562c15.818 0 28.688 12.927 28.688 28.82 0 4.3235-0.95962 8.4276-2.6651 12.112l16.522 16.357c5.4248-8.1552 8.5961-17.946 8.5961-28.469 0-28.328-22.942-51.375-51.14-51.375z" fill="url(#linearGradient-4)"/><path d="m103.83 30h-36.673c8.9572 5.4945 16.374 13.286 21.428 22.555h15.245c4.7902 0 8.6884 3.9143 8.6884 8.7294 0 4.814-3.8981 8.7283-8.6884 8.7283h-3.4256l34.43 34.085c0.081-0.92459 0.13162-1.8548 0.13162-2.7998 0-7.6036-2.7158-14.579-7.2247-20.008 4.509-5.4266 7.2247-12.403 7.2247-20.005 0-17.25-13.966-31.285-31.136-31.285z" fill="url(#linearGradient-5)"/><path d="m101.57 132.58h-34.154c6.8749-4.2658 12.818-9.897 17.484-16.5zm-22.972-22.739-16.521-16.357c-4.5641 9.8552-14.51 16.709-26.024 16.709h-9.0562v22.553h9.0562c17.723 0 33.366-9.1081 42.544-22.906z" fill="url(#linearGradient-6)"/></g></g></svg>
