<?xml version="1.0" encoding="UTF-8"?>
<svg width="119.33mm" height="135.47mm" version="1.1" viewBox="0 0 119.32708 135.46666" xmlns="http://www.w3.org/2000/svg" xmlns:cc="http://creativecommons.org/ns#" xmlns:dc="http://purl.org/dc/elements/1.1/" xmlns:rdf="http://www.w3.org/1999/02/22-rdf-syntax-ns#"><metadata><rdf:RDF><cc:Work rdf:about=""><dc:format>image/svg+xml</dc:format><dc:type rdf:resource="http://purl.org/dc/dcmitype/StillImage"/><dc:title/></cc:Work></rdf:RDF></metadata><g transform="translate(-1114.6 -429.16)"><g transform="matrix(.26458 0 0 .26458 1106.6 429.16)"><path d="m71 460-41-460h451l-41 460-185 52" fill="#e34f26"/><path d="m256 472 149-41 35-394h-184" fill="#ef652a"/><path d="m256 208h-75l-5-58h80v-56h-142l1 15 14 156h127zm0 147h-1l-63-17-4-45h-56l7 89 116 32h1z" fill="#ebebeb"/><path d="m255 208v57h70l-7 73-63 17v59l116-32 1-10 13-149 2-15h-16zm0-114v56h137l1-12 3-29 1-15z" fill="#fff"/></g></g></svg>
