<?xml version="1.0" encoding="UTF-8"?>
<svg width="47.239mm" height="47.24mm" version="1.1" viewBox="0 0 47.239353 47.239617" xmlns="http://www.w3.org/2000/svg" xmlns:cc="http://creativecommons.org/ns#" xmlns:dc="http://purl.org/dc/elements/1.1/" xmlns:rdf="http://www.w3.org/1999/02/22-rdf-syntax-ns#"><metadata><rdf:RDF><cc:Work rdf:about=""><dc:format>image/svg+xml</dc:format><dc:type rdf:resource="http://purl.org/dc/dcmitype/StillImage"/><dc:title/></cc:Work></rdf:RDF></metadata><g transform="translate(-1293.5 -572.1)"><g id="Artboard" transform="matrix(.26458 0 0 .26458 1293.5 572.1)" fill="none" fill-rule="evenodd"><g id="Group" fill="#4e8ef7"><circle cx="89.373" cy="89.271" r="36.448"/><path d="m163.75 27.424c0-6.923-5.6139-12.533-12.535-12.533-3.1413 0-6.0024 1.1625-8.203 3.072-14.945-11.272-33.527-17.963-53.645-17.963-49.224 0-89.271 40.047-89.271 89.272 0 49.223 40.047 89.272 89.272 89.272 49.224 0 89.271-40.048 89.271-89.272 0-20.118-6.6911-38.699-17.962-53.646 1.9095-2.1986 3.073-5.0618 3.073-8.202zm-74.383 148.12c-47.568 0-86.269-38.701-86.269-86.269 0-47.568 38.701-86.269 86.269-86.269 19.342 0 37.214 6.399 51.619 17.19-1.4476 2.044-2.306 4.5357-2.306 7.2312 0 6.922 5.6119 12.532 12.533 12.532 2.6965 0 5.1853-0.85835 7.2302-2.306 10.791 14.404 17.19 32.277 17.19 51.621 2e-3 47.569-38.697 86.27-86.266 86.27z"/></g></g></g></svg>
