<?xml version="1.0" encoding="UTF-8"?>
<svg width="18.522mm" height="6.7567mm" version="1.1" viewBox="0 0 18.521684 6.7567469"
     xmlns="http://www.w3.org/2000/svg" xmlns:cc="http://creativecommons.org/ns#">
  <defs>
    <style>.cls-1{fill:#C00;}</style>
  </defs>
  <g transform="translate(-1291.6 -652.37)">
    <g transform="matrix(.26458 0 0 .26458 1291.6 652.37)">
      <path transform="translate(-32.5,-7.24)"
            d="m40 8.5v-1.26h12.19v1.17c-0.37 0-0.78 0.07-1.19 0.09-1.44 0.06-1.84 0.45-1.84 1.89v14.5c0 2.77-0.86 5.1-3.34 6.53a9.48 9.48 0 0 1 -3.29 1.15 10.09 10.09 0 0 1 -6.15 -0.67c-2.89-1.46-4.63-4.17-3.57-7.54a4 4 0 0 1 4.12 -2.5 3.41 3.41 0 0 1 2.74 3.39 2.41 2.41 0 0 1 -3 2.52c-0.54-0.09-1.25-0.32-1.43 0.31a2.24 2.24 0 0 0 0.34 1.65c0.83 1.27 3.42 1.87 5.17 1.36a4.16 4.16 0 0 0 3 -3.72q0.13-8.52 0.12-17c0-1.49-0.4-1.8-1.88-1.82-0.64-0.06-1.27-0.05-1.99-0.05z"
            fill="#4E9A06"/>
      <g>
        <path class="cls-1" transform="translate(-32.5,-7.24)"
              d="m53.77 11.48-3-0.32v-1.16h11.12v1.22l-3 0.17a8.71 8.71 0 0 0 -0.26 1.45q0 6.11 0 12.22a5.2 5.2 0 0 0 1.37 3.94c1.82 1.73 4 1.74 6.2 1.07s3.32-2.6 3.4-4.85c0.13-3.61 0.09-7.23 0-10.85 0-2-0.67-2.6-3.26-3.28v-1.09h8.47v1a7.94 7.94 0 0 0 -2.14 0.79 3.73 3.73 0 0 0 -1.17 3.21v9.94a6.63 6.63 0 0 1 -2.37 5.72 8.5 8.5 0 0 1 -3.43 1.75c-3.08 0.56-6.16 0.52-9-1.21a5.26 5.26 0 0 1 -2.7 -4.47c-0.1-4.41-0.05-8.81-0.07-13.22-0.04-0.6-0.11-1.2-0.16-2.03z"/>
        <path class="cls-1" transform="translate(-32.5,-7.24)"
              d="m78.7 31.51v0.78h-5.5v-0.7l1.87-0.39v-2q0-2.32 0-4.65c0-1.88-0.12-2-2.07-2.47 0.21-0.15 0.41-0.31 0.63-0.44s0.18 0 0.27 0h2.65l0.45 2.06a4.55 4.55 0 0 1 3.29 -2.15c2.26-0.2 3.54 0.65 3.79 2.9a48.93 48.93 0 0 1 0.13 5c0 1.85 0 1.85 1.8 2.11v0.72h-5.52v-0.7l1.73-0.38c0-2.33 0.08-4.54 0-6.74a2.19 2.19 0 0 0 -2.22 -1.78 2.93 2.93 0 0 0 -2.75 2 9.1 9.1 0 0 0 -0.29 2v3.1c-0.04 1.57 0.04 1.62 1.74 1.73z"/>
        <path class="cls-1" transform="translate(-32.5,-7.24)"
              d="m101.8 28.39h0.7c-0.27 1.46-0.35 2.88-1.83 3.69a2.8 2.8 0 0 1 -4.36 -2.54v-6.57a1.53 1.53 0 0 0 -0.07 -0.27h-1.63v-0.79c2.46-0.51 2.6-2.55 3-4.46l0.66-0.1v4.32h3.39l0.06 1h-3.43v4.35 2.74c0 1.07 0.38 1.51 1.23 1.6a1.63 1.63 0 0 0 1.86 -1.25c0.17-0.58 0.28-1.11 0.42-1.72z"/>
        <path class="cls-1" transform="translate(-32.5,-7.24)"
              d="m88.72 22.51-1.49-0.1v-0.72h4.07v9.5l2 0.39v0.71h-5.83v-0.74c2.07-0.26 2.07-0.26 2.07-2.39v-4.92c-0.10554-0.61342-0.56693-1.1613-0.82-1.73z"/>
        <path class="cls-1" transform="translate(-32.5,-7.24)"
              d="m91.32 16.54a1.2304 1.2304 0 1 1 -2.46 0.06 1.2304 1.2304 0 1 1 2.46 -0.06z"/>
      </g>
    </g>
  </g>
</svg>
