<?xml version="1.0" encoding="UTF-8"?>
<svg width="63.786mm" height="64.816mm" version="1.1" viewBox="0 0 63.786122 64.81607" xmlns="http://www.w3.org/2000/svg" xmlns:cc="http://creativecommons.org/ns#" xmlns:dc="http://purl.org/dc/elements/1.1/" xmlns:rdf="http://www.w3.org/1999/02/22-rdf-syntax-ns#" xmlns:xlink="http://www.w3.org/1999/xlink"><defs><linearGradient id="linearGradient-7" x1="1.0822" x2="-.035815" y1=".58467" y2=".3421"><stop stop-color="#C1EA71" offset="0"/><stop stop-color="#ACDA55" offset="1"/></linearGradient><linearGradient id="linearGradient-8" x1="1.2845" x2="-.26078" y1=".61484" y2=".37983"><stop stop-color="#ACDA55" offset="0"/><stop stop-color="#89C442" offset="1"/></linearGradient><linearGradient id="linearGradient7161" x1="188.72" x2="-5.4918" y1="101.85" y2="59.713" gradientTransform="scale(.80483 1.2425)" gradientUnits="userSpaceOnUse" xlink:href="#linearGradient-7"/><linearGradient id="linearGradient7171" x1="169.44" x2="-32.681" y1="80.947" y2="50.207" gradientTransform="scale(.67383 1.4841)" gradientUnits="userSpaceOnUse" xlink:href="#linearGradient-8"/></defs><metadata><rdf:RDF><cc:Work rdf:about=""><dc:format>image/svg+xml</dc:format><dc:type rdf:resource="http://purl.org/dc/dcmitype/StillImage"/><dc:title/></cc:Work></rdf:RDF></metadata><g transform="translate(-1320.1 -538.39)"><g transform="matrix(.26458 0 0 .26458 1248 538.1)" fill="none" fill-rule="evenodd"><g id="Angular-Leaflet" transform="translate(0,1)"><g id="Leaflet"><g transform="matrix(1 0 0 -1 .37164 253.25)" fill="#3c3c3b"><g id="g92-Clipped"><g transform="translate(.62703 .41776)"><g transform="translate(.94608 .29985)"><path transform="matrix(1 0 0 -1 216.13 165.6)" d="m293.2 60.541c-3.467-0.20684-7.4819 3.424-10.393 5.4844-9.1212 6.4482-26.161 24.668-37.15 27.053-10.525 2.2852-30.212-0.96582-39.619-7.4902-15.222 8.8472-33.973 12.971-51.559 17.012-9.7524 2.2402-19.705 2.042-27.172 8.3555-6.7928 5.7442-45.362 27.66-68.064 37.818-3.178 0.49609-1.0112-3.0179-1.168-4.7871-0.65968 1.6672-1.9756 3.3838-2.851 4.5877-1.0208 1.4186-1.3052 0.86133 0.48966 3.9748 0.97559 1.8721 2.0048 3.7357 2.8555 5.5742 0.63205-0.23324 1.3783-0.36654 1.8965-0.63672 3.1405-0.96272 1.7966-0.43918 0 0 0.66017-0.22089 3.6537-1.1925 4.2148-1.4707 14.24-7.0507 30.98-20.461 44.656-27.83 23.809-12.83 46.658-14.925 70.812-23.184 15.245-16.701 52.07-4.6667 76.254-9.4668 5.1228-0.88566-3.462-3.6662 0.90625-6.3398 9.3574-7.2973 18.903-14.35 28.086-21.877 2.4151 0.61307 5.7213-3.0459 7.3809 0.12695 3.1811 0.88984 0.12925-4.3045 2.7168-6.082-0.72147-0.52305-1.4929-0.77453-2.293-0.82226z"/></g></g></g></g><g transform="matrix(1 0 0 -1 318.69 216.28)" fill="url(#linearGradient7161)"><g fill="url(#linearGradient7161)"><g fill="url(#linearGradient7161)"><g fill="url(#linearGradient7161)"><path d="m24.004 138.41c-21.813-35.16-28.038-62.845-20.128-88.868 7.9079-26.022 23.023-24.851 31.639-33.43 8.6175-8.584 20.307-19.001 38.979-14.796 24.451 5.5103 48.012 21.819 59.731 67.522 11.719 45.705 4.0349 85.728-0.9186 107.83-4.9535 22.098-11.617 39.525-11.617 39.525-3.1884-5.1636-75.871-42.619-97.686-77.779" fill="url(#linearGradient7161)"/></g></g></g></g><g transform="matrix(1 0 0 -1 350.04 202.7)" fill="url(#linearGradient7171)"><g fill="url(#linearGradient7171)"><g fill="url(#linearGradient7171)"><g fill="url(#linearGradient7171)"><path d="m0.96353 5.9709 5.174-5.1918 82.963 194.12z" fill="url(#linearGradient7171)"/></g></g></g></g></g></g></g></g></svg>
